<?xml version="1.0" encoding="UTF-8" standalone="no"?>
<!-- Created with Inkscape (http://www.inkscape.org/) -->

<svg
   version="1.1"
   id="svg1"
   width="353.32938"
   height="83.192612"
   viewBox="0 0 353.32938 83.192612"
   sodipodi:docname="An_ALife_Architecture_Figure5.svg"
   inkscape:version="1.4.3 (0d15f75, 2025-12-25)"
   xmlns:inkscape="http://www.inkscape.org/namespaces/inkscape"
   xmlns:sodipodi="http://sodipodi.sourceforge.net/DTD/sodipodi-0.dtd"
   xmlns="http://www.w3.org/2000/svg"
   xmlns:svg="http://www.w3.org/2000/svg">
  <defs
     id="defs1" />
  <sodipodi:namedview
     id="namedview1"
     pagecolor="#ffffff"
     bordercolor="#000000"
     borderopacity="0.25"
     inkscape:showpageshadow="2"
     inkscape:pageopacity="0.0"
     inkscape:pagecheckerboard="0"
     inkscape:deskcolor="#d1d1d1"
     inkscape:zoom="1.7320267"
     inkscape:cx="218.8188"
     inkscape:cy="47.632061"
     inkscape:window-width="1549"
     inkscape:window-height="930"
     inkscape:window-x="0"
     inkscape:window-y="34"
     inkscape:window-maximized="0"
     inkscape:current-layer="g1">
    <inkscape:page
       x="0"
       y="0"
       inkscape:label="1"
       id="page1"
       width="353.32938"
       height="83.192612"
       margin="0"
       bleed="0" />
  </sodipodi:namedview>
  <g
     id="g1"
     inkscape:groupmode="layer"
     inkscape:label="1"
     transform="translate(-13.129339,-7.81354)">
    <path
       id="path1-5"
       d="m 64.276307,67.845932 c 9.02493,0 16.3416,-7.31733 16.3416,-16.34266 0,-9.025344 -7.31667,-16.341344 -16.3416,-16.341344 -9.025598,0 -16.342264,7.316 -16.342264,16.341344 0,9.02533 7.316666,16.34266 16.342264,16.34266 z"
       style="fill:none;stroke:#e5e5e5;stroke-width:7.33334;stroke-linecap:butt;stroke-linejoin:miter;stroke-miterlimit:4;stroke-dasharray:none;stroke-opacity:1" />
    <path
       id="path2-6"
       d="m 47.681251,10.211228 4.829733,24.988"
       style="fill:none;stroke:#e5e5e5;stroke-width:7.33334;stroke-linecap:butt;stroke-linejoin:miter;stroke-miterlimit:4;stroke-dasharray:none;stroke-opacity:1" />
    <path
       id="path3-8"
       d="m 64.276307,67.845932 v 19.21334"
       style="fill:none;stroke:#e5e5e5;stroke-width:7.33334;stroke-linecap:butt;stroke-linejoin:miter;stroke-miterlimit:4;stroke-dasharray:none;stroke-opacity:1" />
    <path
       id="path4-1"
       d="m 53.656888,36.058438 1.214667,-9.676"
       style="fill:none;stroke:#e5e5e5;stroke-width:7.33334;stroke-linecap:butt;stroke-linejoin:miter;stroke-miterlimit:4;stroke-dasharray:none;stroke-opacity:1" />
    <path
       id="path5-9"
       d="m 53.263776,37.005928 -5.316667,-8.176"
       style="fill:none;stroke:#e5e5e5;stroke-width:7.33334;stroke-linecap:butt;stroke-linejoin:miter;stroke-miterlimit:4;stroke-dasharray:none;stroke-opacity:1" />
    <path
       id="path6-3"
       d="M 63.263456,89.03158 67.28421,77.644058"
       style="fill:none;stroke:#e5e5e5;stroke-width:8.95699;stroke-linecap:butt;stroke-linejoin:miter;stroke-miterlimit:4;stroke-dasharray:none;stroke-opacity:1" />
    <path
       id="path7-8"
       d="M 64.604548,88.55086 61.815517,76.721492"
       style="fill:none;stroke:#e5e5e5;stroke-width:7.60344;stroke-linecap:butt;stroke-linejoin:miter;stroke-miterlimit:4;stroke-dasharray:none;stroke-opacity:1" />
    <path
       id="path8-6"
       d="m 81.587595,10.098608 -6.07453,24.716"
       style="fill:none;stroke:#e5e5e5;stroke-width:7.33334;stroke-linecap:butt;stroke-linejoin:miter;stroke-miterlimit:4;stroke-dasharray:none;stroke-opacity:1" />
    <path
       id="path9-7"
       d="m 75.411595,35.697959 5.15414,-8.28"
       style="fill:none;stroke:#e5e5e5;stroke-width:7.33334;stroke-linecap:butt;stroke-linejoin:miter;stroke-miterlimit:4;stroke-dasharray:none;stroke-opacity:1" />
    <path
       id="path10-7"
       d="m 75.222512,35.153587 -1.40573,-9.65066"
       style="fill:none;stroke:#e5e5e5;stroke-width:7.33334;stroke-linecap:butt;stroke-linejoin:miter;stroke-miterlimit:4;stroke-dasharray:none;stroke-opacity:1" />
    <text
       id="text10-0"
       xml:space="preserve"
       x="30.820045"
       y="80.79525"
       style="font-size:16px;fill:none;stroke:#e5e5e5;stroke-width:3.66666;stroke-dasharray:none;stroke-opacity:1"><tspan
         id="tspan10-9"
         style="font-variant:normal;font-weight:normal;font-size:16px;font-family:'Times New Roman';writing-mode:lr-tb;fill:none;fill-opacity:1;fill-rule:nonzero;stroke:#e5e5e5;stroke-width:3.66666;stroke-dasharray:none;stroke-opacity:1"
         x="30.820045"
         y="80.79525">(a)</tspan></text>
    <path
       id="path11-3"
       d="M 13.129339,52.5549 H 32.343472"
       style="fill:none;stroke:#e5e5e5;stroke-width:7.33334;stroke-linecap:butt;stroke-linejoin:miter;stroke-miterlimit:4;stroke-dasharray:none;stroke-opacity:1" />
    <path
       id="path12-3"
       d="m 34.678204,52.360719 -9.158933,-3.35067"
       style="fill:none;stroke:#e5e5e5;stroke-width:7.33334;stroke-linecap:butt;stroke-linejoin:miter;stroke-miterlimit:4;stroke-dasharray:none;stroke-opacity:1" />
    <path
       id="path13-2"
       d="m 34.266711,52.8654 -9.158799,3.35066"
       style="fill:none;stroke:#e5e5e5;stroke-width:7.33334;stroke-linecap:butt;stroke-linejoin:miter;stroke-miterlimit:4;stroke-dasharray:none;stroke-opacity:1" />
    <path
       id="path14-5"
       d="m 41.825243,57.648602 c 3.124,0 5.6568,-2.53333 5.6568,-5.65733 0,-3.124 -2.5328,-5.657344 -5.6568,-5.657344 -3.124533,0 -5.657333,2.533344 -5.657333,5.657344 0,3.124 2.5328,5.65733 5.657333,5.65733 z"
       style="fill:none;stroke:#e5e5e5;stroke-width:3.66666;stroke-linecap:butt;stroke-linejoin:miter;stroke-miterlimit:4;stroke-dasharray:none;stroke-opacity:1" />
    <text
       id="text15-1"
       xml:space="preserve"
       x="35.559109"
       y="30.071247"
       style="font-size:16px;fill:none;stroke:#e5e5e5;stroke-width:3.66666;stroke-dasharray:none;stroke-opacity:1"><tspan
         id="tspan15-0"
         style="font-variant:normal;font-weight:normal;font-size:16px;font-family:'Times New Roman';writing-mode:lr-tb;fill:none;fill-opacity:1;fill-rule:nonzero;stroke:#e5e5e5;stroke-width:3.66666;stroke-dasharray:none;stroke-opacity:1"
         x="35.559109"
         y="30.071247">0</tspan><tspan
         id="tspan16-0"
         style="font-variant:normal;font-weight:normal;font-size:16px;font-family:'Times New Roman';writing-mode:lr-tb;fill:none;fill-opacity:1;fill-rule:nonzero;stroke:#e5e5e5;stroke-width:3.66666;stroke-dasharray:none;stroke-opacity:1"
         x="85.337234"
         y="27.404575">1</tspan></text>
    <path
       id="path17-8"
       d="m 158.46004,67.845932 c 9.02533,0 16.34133,-7.31733 16.34133,-16.34266 0,-9.025344 -7.316,-16.341344 -16.34133,-16.341344 -9.02533,0 -16.34267,7.316 -16.34267,16.341344 0,9.02533 7.31734,16.34266 16.34267,16.34266 z"
       style="fill:none;stroke:#e5e5e5;stroke-width:7.33334;stroke-linecap:butt;stroke-linejoin:miter;stroke-miterlimit:4;stroke-dasharray:none;stroke-opacity:1" />
    <path
       id="path18-7"
       d="m 141.99462,9.8036881 4.82934,24.9879999"
       style="fill:none;stroke:#e5e5e5;stroke-width:7.33334;stroke-linecap:butt;stroke-linejoin:miter;stroke-miterlimit:4;stroke-dasharray:none;stroke-opacity:1" />
    <path
       id="path19-3"
       d="m 158.46004,67.845932 v 19.21334"
       style="fill:none;stroke:#e5e5e5;stroke-width:7.33334;stroke-linecap:butt;stroke-linejoin:miter;stroke-miterlimit:4;stroke-dasharray:none;stroke-opacity:1" />
    <path
       id="path20-2"
       d="m 147.50137,37.365928 1.21467,-9.676"
       style="fill:none;stroke:#e5e5e5;stroke-width:7.33334;stroke-linecap:butt;stroke-linejoin:miter;stroke-miterlimit:4;stroke-dasharray:none;stroke-opacity:1" />
    <path
       id="path21-0"
       d="m 147.44671,37.005928 -5.316,-8.176"
       style="fill:none;stroke:#e5e5e5;stroke-width:7.33334;stroke-linecap:butt;stroke-linejoin:miter;stroke-miterlimit:4;stroke-dasharray:none;stroke-opacity:1" />
    <path
       id="path22-1"
       d="m 157.77417,89.434671 4.15594,-11.190758"
       style="fill:none;stroke:#e5e5e5;stroke-width:9.02784;stroke-linecap:butt;stroke-linejoin:miter;stroke-miterlimit:4;stroke-dasharray:none;stroke-opacity:1" />
    <path
       id="path23-8"
       d="M 160.66232,88.451693 156.54698,76.840881"
       style="fill:none;stroke:#e5e5e5;stroke-width:9.15253;stroke-linecap:butt;stroke-linejoin:miter;stroke-miterlimit:4;stroke-dasharray:none;stroke-opacity:1" />
    <path
       id="path24-1"
       d="m 175.64693,10.250443 -6.07466,24.716"
       style="fill:none;stroke:#e5e5e5;stroke-width:7.33334;stroke-linecap:butt;stroke-linejoin:miter;stroke-miterlimit:4;stroke-dasharray:none;stroke-opacity:1" />
    <path
       id="path25-8"
       d="m 169.40173,35.455503 5.15334,-8.28"
       style="fill:none;stroke:#e5e5e5;stroke-width:7.33334;stroke-linecap:butt;stroke-linejoin:miter;stroke-miterlimit:4;stroke-dasharray:none;stroke-opacity:1" />
    <path
       id="path26-5"
       d="m 169.01871,36.557928 -1.40534,-9.65066"
       style="fill:none;stroke:#e5e5e5;stroke-width:7.33334;stroke-linecap:butt;stroke-linejoin:miter;stroke-miterlimit:4;stroke-dasharray:none;stroke-opacity:1" />
    <text
       id="text26-7"
       xml:space="preserve"
       x="125.00389"
       y="80.79525"
       style="font-size:16px;fill:none;stroke:#e5e5e5;stroke-width:3.66666;stroke-dasharray:none;stroke-opacity:1"><tspan
         id="tspan26-5"
         style="font-variant:normal;font-weight:normal;font-size:16px;font-family:'Times New Roman';writing-mode:lr-tb;fill:none;fill-opacity:1;fill-rule:nonzero;stroke:#e5e5e5;stroke-width:3.66666;stroke-dasharray:none;stroke-opacity:1"
         x="125.00389"
         y="80.79525">(b)</tspan></text>
    <path
       id="path29-6"
       d="m 252.2667,67.845932 c 9.02534,0 16.34134,-7.31733 16.34134,-16.34266 0,-9.025344 -7.316,-16.341344 -16.34134,-16.341344 -9.02533,0 -16.34266,7.316 -16.34266,16.341344 0,9.02533 7.31733,16.34266 16.34266,16.34266 z"
       style="fill:none;stroke:#e5e5e5;stroke-width:7.33334;stroke-linecap:butt;stroke-linejoin:miter;stroke-miterlimit:4;stroke-dasharray:none;stroke-opacity:1" />
    <path
       id="path30-6"
       d="m 236.42404,12.017928 4.82933,24.988"
       style="fill:none;stroke:#e5e5e5;stroke-width:7.33334;stroke-linecap:butt;stroke-linejoin:miter;stroke-miterlimit:4;stroke-dasharray:none;stroke-opacity:1" />
    <path
       id="path31-8"
       d="m 252.2667,67.845932 v 19.21334"
       style="fill:none;stroke:#e5e5e5;stroke-width:7.33334;stroke-linecap:butt;stroke-linejoin:miter;stroke-miterlimit:4;stroke-dasharray:none;stroke-opacity:1" />
    <path
       id="path32-3"
       d="m 241.5311,35.135337 1.21466,-9.676"
       style="fill:none;stroke:#e5e5e5;stroke-width:7.33334;stroke-linecap:butt;stroke-linejoin:miter;stroke-miterlimit:4;stroke-dasharray:none;stroke-opacity:1" />
    <path
       id="path33-8"
       d="m 241.17902,35.147102 -5.316,-8.176"
       style="fill:none;stroke:#e5e5e5;stroke-width:7.33334;stroke-linecap:butt;stroke-linejoin:miter;stroke-miterlimit:4;stroke-dasharray:none;stroke-opacity:1" />
    <path
       id="path34-8"
       d="m 251.26198,89.256531 3.76896,-11.257824"
       style="fill:none;stroke:#e5e5e5;stroke-width:8.62128;stroke-linecap:butt;stroke-linejoin:miter;stroke-miterlimit:4;stroke-dasharray:none;stroke-opacity:1" />
    <path
       id="path35-5"
       d="M 252.70941,87.436836 249.1688,77.680364"
       style="fill:none;stroke:#e5e5e5;stroke-width:7.77892;stroke-linecap:butt;stroke-linejoin:miter;stroke-miterlimit:4;stroke-dasharray:none;stroke-opacity:1" />
    <text
       id="text35-9"
       xml:space="preserve"
       x="218.8107"
       y="80.79525"
       style="font-size:16px;fill:none;stroke:#e5e5e5;stroke-width:3.66666;stroke-dasharray:none;stroke-opacity:1"><tspan
         id="tspan35-0"
         style="font-variant:normal;font-weight:normal;font-size:16px;font-family:'Times New Roman';writing-mode:lr-tb;fill:none;fill-opacity:1;fill-rule:nonzero;stroke:#e5e5e5;stroke-width:3.66666;stroke-dasharray:none;stroke-opacity:1"
         x="218.8107"
         y="80.79525">(c)</tspan></text>
    <path
       id="path36-8"
       d="m 200.87816,52.525543 h 19.21333"
       style="fill:none;stroke:#e5e5e5;stroke-width:7.33334;stroke-linecap:butt;stroke-linejoin:miter;stroke-miterlimit:4;stroke-dasharray:none;stroke-opacity:1" />
    <path
       id="path37-1"
       d="m 222.39165,52.056448 -9.15867,-3.35067"
       style="fill:none;stroke:#e5e5e5;stroke-width:7.33334;stroke-linecap:butt;stroke-linejoin:miter;stroke-miterlimit:4;stroke-dasharray:none;stroke-opacity:1" />
    <path
       id="path38-8"
       d="m 222.10334,52.177154 -9.15867,3.35066"
       style="fill:none;stroke:#e5e5e5;stroke-width:7.33334;stroke-linecap:butt;stroke-linejoin:miter;stroke-miterlimit:4;stroke-dasharray:none;stroke-opacity:1" />
    <path
       id="path39-3"
       d="m 229.8147,57.648602 c 3.124,0 5.65734,-2.53333 5.65734,-5.65733 0,-3.124 -2.53334,-5.657344 -5.65734,-5.657344 -3.124,0 -5.65599,2.533344 -5.65599,5.657344 0,3.124 2.53199,5.65733 5.65599,5.65733 z"
       style="fill:none;stroke:#e5e5e5;stroke-width:3.66666;stroke-linecap:butt;stroke-linejoin:miter;stroke-miterlimit:4;stroke-dasharray:none;stroke-opacity:1" />
    <text
       id="text40-6"
       xml:space="preserve"
       x="223.54938"
       y="30.071247"
       style="font-size:16px;fill:none;stroke:#e5e5e5;stroke-width:3.66666;stroke-dasharray:none;stroke-opacity:1"><tspan
         id="tspan40-3"
         style="font-variant:normal;font-weight:normal;font-size:16px;font-family:'Times New Roman';writing-mode:lr-tb;fill:none;fill-opacity:1;fill-rule:nonzero;stroke:#e5e5e5;stroke-width:3.66666;stroke-dasharray:none;stroke-opacity:1"
         x="223.54938"
         y="30.071247">0</tspan></text>
    <path
       id="path42-3"
       d="m 346.44937,67.845932 c 9.02533,0 16.34266,-7.31733 16.34266,-16.34266 0,-9.025344 -7.31733,-16.341344 -16.34266,-16.341344 -9.02533,0 -16.34133,7.316 -16.34133,16.341344 0,9.02533 7.316,16.34266 16.34133,16.34266 z"
       style="fill:none;stroke:#e5e5e5;stroke-width:7.33334;stroke-linecap:butt;stroke-linejoin:miter;stroke-miterlimit:4;stroke-dasharray:none;stroke-opacity:1" />
    <path
       id="path43-7"
       d="m 330.16192,10.233455 4.82933,24.988"
       style="fill:none;stroke:#e5e5e5;stroke-width:7.33334;stroke-linecap:butt;stroke-linejoin:miter;stroke-miterlimit:4;stroke-dasharray:none;stroke-opacity:1" />
    <path
       id="path44-1"
       d="m 346.44937,67.845932 v 19.21334"
       style="fill:none;stroke:#e5e5e5;stroke-width:7.33334;stroke-linecap:butt;stroke-linejoin:miter;stroke-miterlimit:4;stroke-dasharray:none;stroke-opacity:1" />
    <path
       id="path45-1"
       d="m 335.64075,35.730161 1.21333,-9.676"
       style="fill:none;stroke:#e5e5e5;stroke-width:7.33334;stroke-linecap:butt;stroke-linejoin:miter;stroke-miterlimit:4;stroke-dasharray:none;stroke-opacity:1" />
    <path
       id="path46-0"
       d="m 335.43737,36.039339 -5.31733,-8.176"
       style="fill:none;stroke:#e5e5e5;stroke-width:7.33334;stroke-linecap:butt;stroke-linejoin:miter;stroke-miterlimit:4;stroke-dasharray:none;stroke-opacity:1" />
    <path
       id="path47-1"
       d="m 345.93602,89.438607 4.12591,-11.324564"
       style="fill:none;stroke:#e5e5e5;stroke-width:9.04878;stroke-linecap:butt;stroke-linejoin:miter;stroke-miterlimit:4;stroke-dasharray:none;stroke-opacity:1" />
    <path
       id="path48-8"
       d="m 346.5747,87.063578 -3.35066,-9.15866"
       style="fill:none;stroke:#e5e5e5;stroke-width:7.33334;stroke-linecap:butt;stroke-linejoin:miter;stroke-miterlimit:4;stroke-dasharray:none;stroke-opacity:1" />
    <text
       id="text48-5"
       xml:space="preserve"
       x="312.99338"
       y="80.79525"
       style="font-size:16px;fill:none;stroke:#e5e5e5;stroke-width:3.66666;stroke-dasharray:none;stroke-opacity:1"><tspan
         id="tspan48-9"
         style="font-variant:normal;font-weight:normal;font-size:16px;font-family:'Times New Roman';writing-mode:lr-tb;fill:none;fill-opacity:1;fill-rule:nonzero;stroke:#e5e5e5;stroke-width:3.66666;stroke-dasharray:none;stroke-opacity:1"
         x="312.99338"
         y="80.79525">(d)</tspan></text>
    <path
       id="path49-2"
       d="M 295.50827,52.748602 H 314.7216"
       style="fill:none;stroke:#e5e5e5;stroke-width:7.33334;stroke-linecap:butt;stroke-linejoin:miter;stroke-miterlimit:4;stroke-dasharray:none;stroke-opacity:1" />
    <path
       id="path50-3"
       d="m 316.57564,51.535977 -9.15866,-3.35067"
       style="fill:none;stroke:#e5e5e5;stroke-width:7.33334;stroke-linecap:butt;stroke-linejoin:miter;stroke-miterlimit:4;stroke-dasharray:none;stroke-opacity:1" />
    <path
       id="path51-3"
       d="m 316.80646,52.474566 -9.15866,3.35066"
       style="fill:none;stroke:#e5e5e5;stroke-width:7.33334;stroke-linecap:butt;stroke-linejoin:miter;stroke-miterlimit:4;stroke-dasharray:none;stroke-opacity:1" />
    <path
       id="path52-1"
       d="m 323.9987,57.648602 c 3.124,0 5.65734,-2.53333 5.65734,-5.65733 0,-3.124 -2.53334,-5.657344 -5.65734,-5.657344 -3.124,0 -5.65733,2.533344 -5.65733,5.657344 0,3.124 2.53333,5.65733 5.65733,5.65733 z"
       style="fill:none;stroke:#e5e5e5;stroke-width:3.66666;stroke-linecap:butt;stroke-linejoin:miter;stroke-miterlimit:4;stroke-dasharray:none;stroke-opacity:1" />
    <text
       id="text53-1"
       xml:space="preserve"
       x="317.73337"
       y="30.071247"
       style="font-size:16px;fill:none;stroke:#e5e5e5;stroke-width:3.66666;stroke-dasharray:none;stroke-opacity:1"><tspan
         id="tspan53-2"
         style="font-variant:normal;font-weight:normal;font-size:16px;font-family:'Times New Roman';writing-mode:lr-tb;fill:none;fill-opacity:1;fill-rule:nonzero;stroke:#e5e5e5;stroke-width:3.66666;stroke-dasharray:none;stroke-opacity:1"
         x="317.73337"
         y="30.071247">1</tspan></text>
    <path
       id="path55-5"
       d="m 152.43632,8.1896631 2.61066,25.3159999"
       style="fill:none;stroke:#e5e5e5;stroke-width:7.33334;stroke-linecap:butt;stroke-linejoin:miter;stroke-miterlimit:4;stroke-dasharray:none;stroke-opacity:1" />
    <path
       id="path56-0"
       d="m 155.20804,35.737928 2.06267,-9.532"
       style="fill:none;stroke:#e5e5e5;stroke-width:7.33334;stroke-linecap:butt;stroke-linejoin:miter;stroke-miterlimit:4;stroke-dasharray:none;stroke-opacity:1" />
    <path
       id="path57-3"
       d="m 154.56262,33.713248 -4.576,-8.612"
       style="fill:none;stroke:#e5e5e5;stroke-width:7.33334;stroke-linecap:butt;stroke-linejoin:miter;stroke-miterlimit:4;stroke-dasharray:none;stroke-opacity:1" />
    <path
       id="path58-4"
       d="M 166.50238,8.8455281 162.42771,33.969528"
       style="fill:none;stroke:#e5e5e5;stroke-width:7.33334;stroke-linecap:butt;stroke-linejoin:miter;stroke-miterlimit:4;stroke-dasharray:none;stroke-opacity:1" />
    <path
       id="path59-3"
       d="m 162.90794,33.495188 4.47467,-8.66667"
       style="fill:none;stroke:#e5e5e5;stroke-width:7.33334;stroke-linecap:butt;stroke-linejoin:miter;stroke-miterlimit:4;stroke-dasharray:none;stroke-opacity:1" />
    <path
       id="path60-9"
       d="m 161.11301,33.900333 -2.17466,-9.508"
       style="fill:none;stroke:#e5e5e5;stroke-width:7.33334;stroke-linecap:butt;stroke-linejoin:miter;stroke-miterlimit:4;stroke-dasharray:none;stroke-opacity:1" />
    <path
       id="path1"
       d="m 483.422,7412.75 c 67.687,0 122.562,54.88 122.562,122.57 0,67.69 -54.875,122.56 -122.562,122.56 -67.692,0 -122.567,-54.87 -122.567,-122.56 0,-67.69 54.875,-122.57 122.567,-122.57 z"
       style="fill:#e5e5e5;fill-opacity:1;stroke:#231f20;stroke-width:20;stroke-linecap:butt;stroke-linejoin:miter;stroke-miterlimit:4;stroke-dasharray:none;stroke-opacity:1"
       transform="matrix(0.13333333,0,0,-0.13333333,0,1056)" />
    <path
       id="path2"
       d="m 364.605,7831.46 36.223,-187.41"
       style="fill:none;stroke:#231f20;stroke-width:20;stroke-linecap:butt;stroke-linejoin:miter;stroke-miterlimit:4;stroke-dasharray:none;stroke-opacity:1"
       transform="matrix(0.13333333,0,0,-0.13333333,0,1056)" />
    <path
       id="path3"
       d="m 483.422,7412.75 v -144.1"
       style="fill:none;stroke:#231f20;stroke-width:20;stroke-linecap:butt;stroke-linejoin:miter;stroke-miterlimit:4;stroke-dasharray:none;stroke-opacity:1"
       transform="matrix(0.13333333,0,0,-0.13333333,0,1056)" />
    <path
       id="path4"
       d="m 54.401216,37.454476 1.214666,-9.676"
       style="fill:none;stroke:#231f20;stroke-width:2.66667;stroke-linecap:butt;stroke-linejoin:miter;stroke-miterlimit:4;stroke-dasharray:none;stroke-opacity:1" />
    <path
       id="path5"
       d="M 54.045965,37.847267 48.729299,29.671268"
       style="fill:none;stroke:#231f20;stroke-width:2.66667;stroke-linecap:butt;stroke-linejoin:miter;stroke-miterlimit:4;stroke-dasharray:none;stroke-opacity:1" />
    <path
       id="path6"
       d="m 484.148,7255.86 25.133,68.69"
       style="fill:none;stroke:#231f20;stroke-width:20;stroke-linecap:butt;stroke-linejoin:miter;stroke-miterlimit:4;stroke-dasharray:none;stroke-opacity:1"
       transform="matrix(0.13333333,0,0,-0.13333333,0,1056)" />
    <path
       id="path7"
       d="M 64.581198,87.705102 61.230265,78.546435"
       style="fill:none;stroke:#231f20;stroke-width:2.66667;stroke-linecap:butt;stroke-linejoin:miter;stroke-miterlimit:4;stroke-dasharray:none;stroke-opacity:1" />
    <path
       id="path8"
       d="M 608.172,7832.78 562.613,7647.41"
       style="fill:none;stroke:#231f20;stroke-width:20;stroke-linecap:butt;stroke-linejoin:miter;stroke-miterlimit:4;stroke-dasharray:none;stroke-opacity:1"
       transform="matrix(0.13333333,0,0,-0.13333333,0,1056)" />
    <path
       id="path9"
       d="m 75.010449,37.470834 5.154133,-8.279999"
       style="fill:none;stroke:#231f20;stroke-width:2.66667;stroke-linecap:butt;stroke-linejoin:miter;stroke-miterlimit:4;stroke-dasharray:none;stroke-opacity:1" />
    <path
       id="path10"
       d="m 562.613,7647.41 -10.543,72.38"
       style="fill:none;stroke:#231f20;stroke-width:20;stroke-linecap:butt;stroke-linejoin:miter;stroke-miterlimit:4;stroke-dasharray:none;stroke-opacity:1"
       transform="matrix(0.13333333,0,0,-0.13333333,0,1056)" />
    <text
       id="text10"
       xml:space="preserve"
       transform="matrix(1.3333333,0,0,1.3333333,31,80.582667)"><tspan
         id="tspan10"
         style="font-variant:normal;font-weight:normal;font-size:12px;font-family:'Times New Roman';writing-mode:lr-tb;fill:#231f20;fill-opacity:1;fill-rule:nonzero;stroke:none"
         x="0"
         y="0">(a)</tspan></text>
    <path
       id="path11"
       d="M 113.621,7525.98 H 257.727"
       style="fill:none;stroke:#231f20;stroke-width:20;stroke-linecap:butt;stroke-linejoin:miter;stroke-miterlimit:4;stroke-dasharray:none;stroke-opacity:1"
       transform="matrix(0.13333333,0,0,-0.13333333,0,1056)" />
    <path
       id="path12"
       d="m 270.516,7526.71 -68.692,25.13"
       style="fill:none;stroke:#231f20;stroke-width:20;stroke-linecap:butt;stroke-linejoin:miter;stroke-miterlimit:4;stroke-dasharray:none;stroke-opacity:1"
       transform="matrix(0.13333333,0,0,-0.13333333,0,1056)" />
    <path
       id="path13"
       d="m 267.793,7526.92 -68.691,-25.13"
       style="fill:none;stroke:#231f20;stroke-width:20;stroke-linecap:butt;stroke-linejoin:miter;stroke-miterlimit:4;stroke-dasharray:none;stroke-opacity:1"
       transform="matrix(0.13333333,0,0,-0.13333333,0,1056)" />
    <path
       id="path14"
       d="m 315.039,7489.23 c 23.43,0 42.426,19 42.426,42.43 0,23.43 -18.996,42.43 -42.426,42.43 -23.434,0 -42.43,-19 -42.43,-42.43 0,-23.43 18.996,-42.43 42.43,-42.43 z"
       style="fill:#e5e5e5;fill-opacity:1;stroke:#231f20;stroke-width:10;stroke-linecap:butt;stroke-linejoin:miter;stroke-miterlimit:4;stroke-dasharray:none;stroke-opacity:1"
       transform="matrix(0.13333333,0,0,-0.13333333,0,1056)" />
    <path
       id="path15"
       d="m 458.043,7496.06 -50,130"
       style="fill:none;stroke:#231f20;stroke-width:10;stroke-linecap:butt;stroke-linejoin:miter;stroke-miterlimit:4;stroke-dasharray:none;stroke-opacity:1"
       transform="matrix(0.13333333,0,0,-0.13333333,0,1056)" />
    <text
       id="text15"
       xml:space="preserve"
       transform="matrix(1.3333333,0,0,1.3333333,35.739067,29.858667)"><tspan
         id="tspan15"
         style="font-variant:normal;font-weight:normal;font-size:12px;font-family:'Times New Roman';writing-mode:lr-tb;fill:#231f20;fill-opacity:1;fill-rule:nonzero;stroke:none"
         x="0"
         y="0">0</tspan><tspan
         id="tspan16"
         style="font-variant:normal;font-weight:normal;font-size:12px;font-family:'Times New Roman';writing-mode:lr-tb;fill:#231f20;fill-opacity:1;fill-rule:nonzero;stroke:none"
         x="37.333599"
         y="-2">1</tspan></text>
    <path
       id="path16"
       d="m 72.146751,65.061751 c 0.0276,-0.265334 0.0416,-0.534667 0.0416,-0.808 0,-4.297334 -3.483733,-7.781334 -7.780666,-7.781334 -4.297333,0 -7.780667,3.484 -7.780667,7.781334 0,0.345333 0.0224,0.686666 0.06613,1.021333"
       style="fill:none;stroke:#231f20;stroke-width:2.66667;stroke-linecap:butt;stroke-linejoin:miter;stroke-miterlimit:4;stroke-dasharray:none;stroke-opacity:1" />
    <path
       id="path17"
       d="m 1189.8,7412.75 c 67.69,0 122.56,54.88 122.56,122.57 0,67.69 -54.87,122.56 -122.56,122.56 -67.69,0 -122.57,-54.87 -122.57,-122.56 0,-67.69 54.88,-122.57 122.57,-122.57 z"
       style="fill:#e5e5e5;fill-opacity:1;stroke:#231f20;stroke-width:20;stroke-linecap:butt;stroke-linejoin:miter;stroke-miterlimit:4;stroke-dasharray:none;stroke-opacity:1"
       transform="matrix(0.13333333,0,0,-0.13333333,0,1056)" />
    <path
       id="path18"
       d="m 1070.98,7831.46 36.22,-187.41"
       style="fill:none;stroke:#231f20;stroke-width:20;stroke-linecap:butt;stroke-linejoin:miter;stroke-miterlimit:4;stroke-dasharray:none;stroke-opacity:1"
       transform="matrix(0.13333333,0,0,-0.13333333,0,1056)" />
    <path
       id="path19"
       d="m 1189.8,7412.75 v -144.1"
       style="fill:none;stroke:#231f20;stroke-width:20;stroke-linecap:butt;stroke-linejoin:miter;stroke-miterlimit:4;stroke-dasharray:none;stroke-opacity:1"
       transform="matrix(0.13333333,0,0,-0.13333333,0,1056)" />
    <path
       id="path20"
       d="m 1107.61,7641.35 9.11,72.57"
       style="fill:none;stroke:#231f20;stroke-width:20;stroke-linecap:butt;stroke-linejoin:miter;stroke-miterlimit:4;stroke-dasharray:none;stroke-opacity:1"
       transform="matrix(0.13333333,0,0,-0.13333333,0,1056)" />
    <path
       id="path21"
       d="m 148.38781,37.831284 -5.316,-8.176"
       style="fill:none;stroke:#231f20;stroke-width:2.66667;stroke-linecap:butt;stroke-linejoin:miter;stroke-miterlimit:4;stroke-dasharray:none;stroke-opacity:1" />
    <path
       id="path22"
       d="m 1190.53,7255.86 25.13,68.69"
       style="fill:none;stroke:#231f20;stroke-width:20;stroke-linecap:butt;stroke-linejoin:miter;stroke-miterlimit:4;stroke-dasharray:none;stroke-opacity:1"
       transform="matrix(0.13333333,0,0,-0.13333333,0,1056)" />
    <path
       id="path23"
       d="m 158.90239,87.704993 -3.34934,-9.158667"
       style="fill:none;stroke:#231f20;stroke-width:2.66667;stroke-linecap:butt;stroke-linejoin:miter;stroke-miterlimit:4;stroke-dasharray:none;stroke-opacity:1" />
    <path
       id="path24"
       d="m 1314.55,7832.78 -45.56,-185.37"
       style="fill:none;stroke:#231f20;stroke-width:20;stroke-linecap:butt;stroke-linejoin:miter;stroke-miterlimit:4;stroke-dasharray:none;stroke-opacity:1"
       transform="matrix(0.13333333,0,0,-0.13333333,0,1056)" />
    <path
       id="path25"
       d="m 168.82055,37.387975 5.15333,-8.279999"
       style="fill:none;stroke:#231f20;stroke-width:2.66667;stroke-linecap:butt;stroke-linejoin:miter;stroke-miterlimit:4;stroke-dasharray:none;stroke-opacity:1" />
    <path
       id="path26"
       d="m 1268.99,7647.41 -10.54,72.38"
       style="fill:none;stroke:#231f20;stroke-width:20;stroke-linecap:butt;stroke-linejoin:miter;stroke-miterlimit:4;stroke-dasharray:none;stroke-opacity:1"
       transform="matrix(0.13333333,0,0,-0.13333333,0,1056)" />
    <text
       id="text26"
       xml:space="preserve"
       transform="matrix(1.3333333,0,0,1.3333333,125.18387,80.582667)"><tspan
         id="tspan26"
         style="font-variant:normal;font-weight:normal;font-size:12px;font-family:'Times New Roman';writing-mode:lr-tb;fill:#231f20;fill-opacity:1;fill-rule:nonzero;stroke:none"
         x="0"
         y="0">(b)</tspan></text>
    <path
       id="path27"
       d="m 1164.42,7496.06 -50,130"
       style="fill:none;stroke:#231f20;stroke-width:10;stroke-linecap:butt;stroke-linejoin:miter;stroke-miterlimit:4;stroke-dasharray:none;stroke-opacity:1"
       transform="matrix(0.13333333,0,0,-0.13333333,0,1056)" />
    <path
       id="path28"
       d="m 166.256,65.136104 c 0.028,-0.265334 0.0413,-0.534667 0.0413,-0.808 0,-4.297334 -3.48267,-7.781334 -7.78,-7.781334 -4.29733,0 -7.78133,3.484 -7.78133,7.781334 0,0.345333 0.0227,0.686666 0.0667,1.021333"
       style="fill:none;stroke:#231f20;stroke-width:2.66667;stroke-linecap:butt;stroke-linejoin:miter;stroke-miterlimit:4;stroke-dasharray:none;stroke-opacity:1" />
    <path
       id="path29"
       d="m 1893.35,7412.75 c 67.69,0 122.56,54.88 122.56,122.57 0,67.69 -54.87,122.56 -122.56,122.56 -67.69,0 -122.57,-54.87 -122.57,-122.56 0,-67.69 54.88,-122.57 122.57,-122.57 z"
       style="fill:#e5e5e5;fill-opacity:1;stroke:#231f20;stroke-width:20;stroke-linecap:butt;stroke-linejoin:miter;stroke-miterlimit:4;stroke-dasharray:none;stroke-opacity:1"
       transform="matrix(0.13333333,0,0,-0.13333333,0,1056)" />
    <path
       id="path30"
       d="m 237.05011,14.259009 4.82934,24.988"
       style="fill:none;stroke:#231f20;stroke-width:2.66667;stroke-linecap:butt;stroke-linejoin:miter;stroke-miterlimit:4;stroke-dasharray:none;stroke-opacity:1" />
    <path
       id="path31"
       d="m 1893.35,7412.75 v -144.1"
       style="fill:none;stroke:#231f20;stroke-width:20;stroke-linecap:butt;stroke-linejoin:miter;stroke-miterlimit:4;stroke-dasharray:none;stroke-opacity:1"
       transform="matrix(0.13333333,0,0,-0.13333333,0,1056)" />
    <path
       id="path32"
       d="m 1811.16,7641.35 9.11,72.57"
       style="fill:none;stroke:#231f20;stroke-width:20;stroke-linecap:butt;stroke-linejoin:miter;stroke-miterlimit:4;stroke-dasharray:none;stroke-opacity:1"
       transform="matrix(0.13333333,0,0,-0.13333333,0,1056)" />
    <path
       id="path33"
       d="m 241.87945,37.462536 -5.316,-8.176"
       style="fill:none;stroke:#231f20;stroke-width:2.66667;stroke-linecap:butt;stroke-linejoin:miter;stroke-miterlimit:4;stroke-dasharray:none;stroke-opacity:1" />
    <path
       id="path34"
       d="m 1894.07,7255.86 25.14,68.69"
       style="fill:none;stroke:#231f20;stroke-width:20;stroke-linecap:butt;stroke-linejoin:miter;stroke-miterlimit:4;stroke-dasharray:none;stroke-opacity:1"
       transform="matrix(0.13333333,0,0,-0.13333333,0,1056)" />
    <path
       id="path35"
       d="m 252.7207,87.817592 -3.352,-9.158666"
       style="fill:none;stroke:#231f20;stroke-width:2.66667;stroke-linecap:butt;stroke-linejoin:miter;stroke-miterlimit:4;stroke-dasharray:none;stroke-opacity:1" />
    <text
       id="text35"
       xml:space="preserve"
       transform="matrix(1.3333333,0,0,1.3333333,218.99067,80.582667)"><tspan
         id="tspan35"
         style="font-variant:normal;font-weight:normal;font-size:12px;font-family:'Times New Roman';writing-mode:lr-tb;fill:#231f20;fill-opacity:1;fill-rule:nonzero;stroke:none"
         x="0"
         y="0">(c)</tspan></text>
    <path
       id="path36"
       d="m 1523.55,7525.98 h 144.1"
       style="fill:none;stroke:#231f20;stroke-width:20;stroke-linecap:butt;stroke-linejoin:miter;stroke-miterlimit:4;stroke-dasharray:none;stroke-opacity:1"
       transform="matrix(0.13333333,0,0,-0.13333333,0,1056)" />
    <path
       id="path37"
       d="m 1680.44,7526.71 -68.69,25.13"
       style="fill:none;stroke:#231f20;stroke-width:20;stroke-linecap:butt;stroke-linejoin:miter;stroke-miterlimit:4;stroke-dasharray:none;stroke-opacity:1"
       transform="matrix(0.13333333,0,0,-0.13333333,0,1056)" />
    <path
       id="path38"
       d="m 1677.72,7526.92 -68.69,-25.13"
       style="fill:none;stroke:#231f20;stroke-width:20;stroke-linecap:butt;stroke-linejoin:miter;stroke-miterlimit:4;stroke-dasharray:none;stroke-opacity:1"
       transform="matrix(0.13333333,0,0,-0.13333333,0,1056)" />
    <path
       id="path39"
       d="m 1724.96,7489.23 c 23.43,0 42.43,19 42.43,42.43 0,23.43 -19,42.43 -42.43,42.43 -23.43,0 -42.42,-19 -42.42,-42.43 0,-23.43 18.99,-42.43 42.42,-42.43 z"
       style="fill:#e5e5e5;fill-opacity:1;stroke:#231f20;stroke-width:10;stroke-linecap:butt;stroke-linejoin:miter;stroke-miterlimit:4;stroke-dasharray:none;stroke-opacity:1"
       transform="matrix(0.13333333,0,0,-0.13333333,0,1056)" />
    <path
       id="path40"
       d="m 1867.97,7496.06 -50,130"
       style="fill:none;stroke:#231f20;stroke-width:10;stroke-linecap:butt;stroke-linejoin:miter;stroke-miterlimit:4;stroke-dasharray:none;stroke-opacity:1"
       transform="matrix(0.13333333,0,0,-0.13333333,0,1056)" />
    <text
       id="text40"
       xml:space="preserve"
       transform="matrix(1.3333333,0,0,1.3333333,223.72933,29.858667)"><tspan
         id="tspan40"
         style="font-variant:normal;font-weight:normal;font-size:12px;font-family:'Times New Roman';writing-mode:lr-tb;fill:#231f20;fill-opacity:1;fill-rule:nonzero;stroke:none"
         x="0"
         y="0">0</tspan></text>
    <path
       id="path41"
       d="m 260.21137,65.136104 c 0.028,-0.265334 0.0413,-0.534667 0.0413,-0.808 0,-4.297334 -3.484,-7.781334 -7.78,-7.781334 -4.29733,0 -7.78133,3.484 -7.78133,7.781334 0,0.345333 0.0227,0.686666 0.0667,1.021333"
       style="fill:none;stroke:#231f20;stroke-width:2.66667;stroke-linecap:butt;stroke-linejoin:miter;stroke-miterlimit:4;stroke-dasharray:none;stroke-opacity:1" />
    <path
       id="path42"
       d="m 2599.72,7412.75 c 67.69,0 122.57,54.88 122.57,122.57 0,67.69 -54.88,122.56 -122.57,122.56 -67.69,0 -122.56,-54.87 -122.56,-122.56 0,-67.69 54.87,-122.57 122.56,-122.57 z"
       style="fill:#e5e5e5;fill-opacity:1;stroke:#231f20;stroke-width:20;stroke-linecap:butt;stroke-linejoin:miter;stroke-miterlimit:4;stroke-dasharray:none;stroke-opacity:1"
       transform="matrix(0.13333333,0,0,-0.13333333,0,1056)" />
    <path
       id="path43"
       d="m 2480.91,7831.46 36.22,-187.41"
       style="fill:none;stroke:#231f20;stroke-width:20;stroke-linecap:butt;stroke-linejoin:miter;stroke-miterlimit:4;stroke-dasharray:none;stroke-opacity:1"
       transform="matrix(0.13333333,0,0,-0.13333333,0,1056)" />
    <path
       id="path44"
       d="m 2599.72,7412.75 v -144.1"
       style="fill:none;stroke:#231f20;stroke-width:20;stroke-linecap:butt;stroke-linejoin:miter;stroke-miterlimit:4;stroke-dasharray:none;stroke-opacity:1"
       transform="matrix(0.13333333,0,0,-0.13333333,0,1056)" />
    <path
       id="path45"
       d="m 2517.54,7641.35 9.1,72.57"
       style="fill:none;stroke:#231f20;stroke-width:20;stroke-linecap:butt;stroke-linejoin:miter;stroke-miterlimit:4;stroke-dasharray:none;stroke-opacity:1"
       transform="matrix(0.13333333,0,0,-0.13333333,0,1056)" />
    <path
       id="path46"
       d="m 336.1378,37.462536 -5.31734,-8.176"
       style="fill:none;stroke:#231f20;stroke-width:2.66667;stroke-linecap:butt;stroke-linejoin:miter;stroke-miterlimit:4;stroke-dasharray:none;stroke-opacity:1" />
    <path
       id="path47"
       d="m 2600.45,7255.86 25.13,68.69"
       style="fill:none;stroke:#231f20;stroke-width:20;stroke-linecap:butt;stroke-linejoin:miter;stroke-miterlimit:4;stroke-dasharray:none;stroke-opacity:1"
       transform="matrix(0.13333333,0,0,-0.13333333,0,1056)" />
    <path
       id="path48"
       d="m 2600.66,7258.58 -25.13,68.69"
       style="fill:none;stroke:#231f20;stroke-width:20;stroke-linecap:butt;stroke-linejoin:miter;stroke-miterlimit:4;stroke-dasharray:none;stroke-opacity:1"
       transform="matrix(0.13333333,0,0,-0.13333333,0,1056)" />
    <text
       id="text48"
       xml:space="preserve"
       transform="matrix(1.3333333,0,0,1.3333333,313.17333,80.582667)"><tspan
         id="tspan48"
         style="font-variant:normal;font-weight:normal;font-size:12px;font-family:'Times New Roman';writing-mode:lr-tb;fill:#231f20;fill-opacity:1;fill-rule:nonzero;stroke:none"
         x="0"
         y="0">(d)</tspan></text>
    <path
       id="path49"
       d="m 2229.93,7525.98 h 144.1"
       style="fill:none;stroke:#231f20;stroke-width:20;stroke-linecap:butt;stroke-linejoin:miter;stroke-miterlimit:4;stroke-dasharray:none;stroke-opacity:1"
       transform="matrix(0.13333333,0,0,-0.13333333,0,1056)" />
    <path
       id="path50"
       d="m 2386.82,7526.71 -68.69,25.13"
       style="fill:none;stroke:#231f20;stroke-width:20;stroke-linecap:butt;stroke-linejoin:miter;stroke-miterlimit:4;stroke-dasharray:none;stroke-opacity:1"
       transform="matrix(0.13333333,0,0,-0.13333333,0,1056)" />
    <path
       id="path51"
       d="m 2384.09,7526.92 -68.69,-25.13"
       style="fill:none;stroke:#231f20;stroke-width:20;stroke-linecap:butt;stroke-linejoin:miter;stroke-miterlimit:4;stroke-dasharray:none;stroke-opacity:1"
       transform="matrix(0.13333333,0,0,-0.13333333,0,1056)" />
    <path
       id="path52"
       d="m 2431.34,7489.23 c 23.43,0 42.43,19 42.43,42.43 0,23.43 -19,42.43 -42.43,42.43 -23.43,0 -42.43,-19 -42.43,-42.43 0,-23.43 19,-42.43 42.43,-42.43 z"
       style="fill:#e5e5e5;fill-opacity:1;stroke:#231f20;stroke-width:10;stroke-linecap:butt;stroke-linejoin:miter;stroke-miterlimit:4;stroke-dasharray:none;stroke-opacity:1"
       transform="matrix(0.13333333,0,0,-0.13333333,0,1056)" />
    <path
       id="path53"
       d="m 2574.35,7496.06 -50,130"
       style="fill:none;stroke:#231f20;stroke-width:10;stroke-linecap:butt;stroke-linejoin:miter;stroke-miterlimit:4;stroke-dasharray:none;stroke-opacity:1"
       transform="matrix(0.13333333,0,0,-0.13333333,0,1056)" />
    <text
       id="text53"
       xml:space="preserve"
       transform="matrix(1.3333333,0,0,1.3333333,317.91333,29.858667)"><tspan
         id="tspan53"
         style="font-variant:normal;font-weight:normal;font-size:12px;font-family:'Times New Roman';writing-mode:lr-tb;fill:#231f20;fill-opacity:1;fill-rule:nonzero;stroke:none"
         x="0"
         y="0">1</tspan></text>
    <path
       id="path54"
       d="m 354.24532,65.433516 c 0.028,-0.265334 0.0427,-0.534667 0.0427,-0.808 0,-4.297334 -3.484,-7.781333 -7.78133,-7.781333 -4.29734,0 -7.78,3.483999 -7.78,7.781333 0,0.345333 0.0213,0.686666 0.0667,1.021333"
       style="fill:none;stroke:#231f20;stroke-width:2.66667;stroke-linecap:butt;stroke-linejoin:miter;stroke-miterlimit:4;stroke-dasharray:none;stroke-opacity:1" />
    <path
       id="path55"
       d="m 1145.66,7846.16 19.58,-189.87"
       style="fill:none;stroke:#231f20;stroke-width:20;stroke-linecap:butt;stroke-linejoin:miter;stroke-miterlimit:4;stroke-dasharray:none;stroke-opacity:1"
       transform="matrix(0.13333333,0,0,-0.13333333,0,1056)" />
    <path
       id="path56"
       d="m 1165.41,7653.56 15.47,71.49"
       style="fill:none;stroke:#231f20;stroke-width:20;stroke-linecap:butt;stroke-linejoin:miter;stroke-miterlimit:4;stroke-dasharray:none;stroke-opacity:1"
       transform="matrix(0.13333333,0,0,-0.13333333,0,1056)" />
    <path
       id="path57"
       d="m 1165.24,7656.29 -34.32,64.59"
       style="fill:none;stroke:#231f20;stroke-width:20;stroke-linecap:butt;stroke-linejoin:miter;stroke-miterlimit:4;stroke-dasharray:none;stroke-opacity:1"
       transform="matrix(0.13333333,0,0,-0.13333333,0,1056)" />
    <path
       id="path58"
       d="m 1243.89,7841.76 -30.56,-188.43"
       style="fill:none;stroke:#231f20;stroke-width:20;stroke-linecap:butt;stroke-linejoin:miter;stroke-miterlimit:4;stroke-dasharray:none;stroke-opacity:1"
       transform="matrix(0.13333333,0,0,-0.13333333,0,1056)" />
    <path
       id="path59"
       d="m 1212.78,7650.66 33.56,65"
       style="fill:none;stroke:#231f20;stroke-width:20;stroke-linecap:butt;stroke-linejoin:miter;stroke-miterlimit:4;stroke-dasharray:none;stroke-opacity:1"
       transform="matrix(0.13333333,0,0,-0.13333333,0,1056)" />
    <path
       id="path60"
       d="m 1213.33,7653.33 -16.31,71.31"
       style="fill:none;stroke:#231f20;stroke-width:20;stroke-linecap:butt;stroke-linejoin:miter;stroke-miterlimit:4;stroke-dasharray:none;stroke-opacity:1"
       transform="matrix(0.13333333,0,0,-0.13333333,0,1056)" />
  </g>
</svg>
