<?xml version="1.0" encoding="UTF-8" standalone="no"?>
<!-- Created with Inkscape (http://www.inkscape.org/) -->

<svg
   version="1.1"
   id="svg1"
   width="619.07965"
   height="77.805588"
   viewBox="0 0 619.07965 77.805588"
   sodipodi:docname="An_ALife_Architecture_Figure7.svg"
   inkscape:version="1.4.3 (0d15f75, 2025-12-25)"
   xmlns:inkscape="http://www.inkscape.org/namespaces/inkscape"
   xmlns:sodipodi="http://sodipodi.sourceforge.net/DTD/sodipodi-0.dtd"
   xmlns="http://www.w3.org/2000/svg"
   xmlns:svg="http://www.w3.org/2000/svg">
  <defs
     id="defs1" />
  <sodipodi:namedview
     id="namedview1"
     pagecolor="#ffffff"
     bordercolor="#000000"
     borderopacity="0.25"
     inkscape:showpageshadow="2"
     inkscape:pageopacity="0.0"
     inkscape:pagecheckerboard="0"
     inkscape:deskcolor="#d1d1d1"
     inkscape:zoom="1.3151276"
     inkscape:cx="519.72143"
     inkscape:cy="-2.6613387"
     inkscape:window-width="1490"
     inkscape:window-height="918"
     inkscape:window-x="0"
     inkscape:window-y="34"
     inkscape:window-maximized="0"
     inkscape:current-layer="g1">
    <inkscape:page
       x="0"
       y="0"
       inkscape:label="1"
       id="page1"
       width="619.07965"
       height="77.805588"
       margin="0"
       bleed="0" />
  </sodipodi:namedview>
  <g
     id="g1"
     inkscape:groupmode="layer"
     inkscape:label="1"
     transform="translate(-5.7142892,-12.584857)">
    <path
       id="path1-5"
       d="m 320.66197,83.848857 h 34.66666 v -66.66667 h -34.66666 z"
       style="fill:none;stroke:#f1f1f1;stroke-width:7.33334;stroke-linecap:butt;stroke-linejoin:miter;stroke-miterlimit:4;stroke-dasharray:none;stroke-opacity:1" />
    <path
       id="path5-2"
       d="m 408.46997,48.736857 h 13.42266"
       style="fill:none;stroke:#f1f1f1;stroke-width:7.33334;stroke-linecap:butt;stroke-linejoin:miter;stroke-miterlimit:4;stroke-dasharray:none;stroke-opacity:1" />
    <path
       id="path6-8"
       d="m 374.95797,49.736857 c 0,9.02533 7.31733,16.34267 16.34266,16.34267 9.02534,0 16.34267,-7.31734 16.34267,-16.34267 0,-9.02533 -7.31733,-16.34267 -16.34267,-16.34267 -9.02533,0 -16.34266,7.31734 -16.34266,16.34267 z"
       style="fill:none;stroke:#f1f1f1;stroke-width:7.33334;stroke-linecap:butt;stroke-linejoin:miter;stroke-miterlimit:4;stroke-dasharray:none;stroke-opacity:1" />
    <path
       id="path7-3"
       d="M 374.95797,49.736857 H 355.74463"
       style="fill:none;stroke:#f1f1f1;stroke-width:7.33334;stroke-linecap:butt;stroke-linejoin:miter;stroke-miterlimit:4;stroke-dasharray:none;stroke-opacity:1" />
    <path
       id="path9-6"
       d="m 494.58596,85.771527 h 34.66667 v -66.66667 h -34.66667 z"
       style="fill:none;stroke:#f1f1f1;stroke-width:7.33334;stroke-linecap:butt;stroke-linejoin:miter;stroke-miterlimit:4;stroke-dasharray:none;stroke-opacity:1" />
    <path
       id="path13-3"
       d="m 548.84196,49.880857 c 0,9.02533 7.316,16.34133 16.34134,16.34133 9.02533,0 16.34133,-7.316 16.34133,-16.34133 0,-9.02533 -7.316,-16.34133 -16.34133,-16.34133 -9.02534,0 -16.34134,7.316 -16.34134,16.34133 z"
       style="fill:none;stroke:#f1f1f1;stroke-width:7.33334;stroke-linecap:butt;stroke-linejoin:miter;stroke-miterlimit:4;stroke-dasharray:none;stroke-opacity:1" />
    <path
       id="path15-4"
       d="m 596.22463,49.686187 h -26"
       style="fill:none;stroke:#f1f1f1;stroke-width:7.33334;stroke-linecap:butt;stroke-linejoin:miter;stroke-miterlimit:4;stroke-dasharray:none;stroke-opacity:1" />
    <path
       id="path16-6"
       d="m 561.24463,49.646187 -31.61733,0.23467"
       style="fill:none;stroke:#f1f1f1;stroke-width:7.33334;stroke-linecap:butt;stroke-linejoin:miter;stroke-miterlimit:4;stroke-dasharray:none;stroke-opacity:1" />
    <path
       id="path18-0"
       d="m 102.51224,75.031527 h 26.2224 v -49.77734 h -26.2224 v 49.77734"
       style="fill:none;fill-opacity:1;fill-rule:nonzero;stroke:#f1f1f1;stroke-width:0.366666;stroke-dasharray:none;stroke-opacity:1" />
    <path
       id="path19-1"
       d="m 102.51224,75.031527 h 26.2224 v -49.77734 h -26.2224 z"
       style="fill:none;stroke:#f1f1f1;stroke-width:7.33334;stroke-linecap:butt;stroke-linejoin:miter;stroke-miterlimit:4;stroke-dasharray:none;stroke-opacity:1" />
    <path
       id="path20-6"
       d="m 253.5233,71.088857 c 0.73067,0.076 1.47333,0.11467 2.22533,0.11467 11.832,0 21.424,-9.592 21.424,-21.424 0,-11.832 -9.592,-21.424 -21.424,-21.424 -0.95333,0 -1.892,0.0613 -2.812,0.18266"
       style="fill:none;stroke:#f1f1f1;stroke-width:7.33334;stroke-linecap:butt;stroke-linejoin:miter;stroke-miterlimit:4;stroke-dasharray:none;stroke-opacity:1" />
    <path
       id="path21-5"
       d="m 254.16997,26.108857 h -3.47067 v 47.34133 h 3.47067 v -47.34133"
       style="fill:none;fill-opacity:1;fill-rule:nonzero;stroke:#f1f1f1;stroke-width:0.366666;stroke-dasharray:none;stroke-opacity:1" />
    <path
       id="path22-9"
       d="m 251.9593,49.779527 h -30.756"
       style="fill:none;stroke:#f1f1f1;stroke-width:7.33334;stroke-linecap:butt;stroke-linejoin:miter;stroke-miterlimit:4;stroke-dasharray:none;stroke-opacity:1" />
    <path
       id="path32-3"
       d="M 102.7513,49.754187 H 71.995044"
       style="fill:none;stroke:#f1f1f1;stroke-width:7.33334;stroke-linecap:butt;stroke-linejoin:miter;stroke-miterlimit:4;stroke-dasharray:none;stroke-opacity:1" />
    <path
       id="path33-3"
       d="M 36.364241,84.023527 H 71.031444 V 17.356857 H 36.364241 Z"
       style="fill:none;stroke:#f1f1f1;stroke-width:7.33334;stroke-linecap:butt;stroke-linejoin:miter;stroke-miterlimit:4;stroke-dasharray:none;stroke-opacity:1" />
    <path
       id="path46-9"
       d="m 186.59264,82.919527 h 34.66666 v -66.668 h -34.66666 z"
       style="fill:none;stroke:#f1f1f1;stroke-width:7.33334;stroke-linecap:butt;stroke-linejoin:miter;stroke-miterlimit:4;stroke-dasharray:none;stroke-opacity:1" />
    <path
       id="path50-2"
       d="m 424.3433,69.420857 c 0.732,0.076 1.47467,0.11467 2.22533,0.11467 11.832,0 21.424,-9.592 21.424,-21.424 0,-11.832 -9.592,-21.424 -21.424,-21.424 -0.952,0 -1.89066,0.0613 -2.81066,0.18266"
       style="fill:none;stroke:#f1f1f1;stroke-width:7.33334;stroke-linecap:butt;stroke-linejoin:miter;stroke-miterlimit:4;stroke-dasharray:none;stroke-opacity:1" />
    <path
       id="path51-9"
       d="m 424.9913,24.440857 h -3.472 v 47.34133 h 3.472 v -47.34133"
       style="fill:none;fill-opacity:1;fill-rule:nonzero;stroke:#f1f1f1;stroke-width:0.366666;stroke-dasharray:none;stroke-opacity:1" />
    <path
       id="path61-5"
       d="m 597.47796,72.026187 c 0.73067,0.076 1.47334,0.11467 2.22533,0.11467 11.832,0 21.424,-9.592 21.424,-21.424 0,-11.832 -9.592,-21.42533 -21.424,-21.42533 -0.95333,0 -1.89199,0.0627 -2.81199,0.18266"
       style="fill:none;stroke:#f1f1f1;stroke-width:7.33334;stroke-linecap:butt;stroke-linejoin:miter;stroke-miterlimit:4;stroke-dasharray:none;stroke-opacity:1" />
    <path
       id="path62-0"
       d="m 598.12463,27.046187 h -3.47067 v 47.34 h 3.47067 v -47.34"
       style="fill:none;fill-opacity:1;fill-rule:nonzero;stroke:#f1f1f1;stroke-width:0.366666;stroke-dasharray:none;stroke-opacity:1" />
    <text
       id="text71-6"
       xml:space="preserve"
       x="6.4382443"
       y="85.291489"
       style="font-size:16px;fill:none;stroke:#f1f1f1;stroke-width:3.66666;stroke-dasharray:none;stroke-opacity:1"><tspan
         id="tspan71-0"
         style="font-variant:normal;font-weight:normal;font-size:16px;font-family:Helvetica;writing-mode:lr-tb;fill:none;fill-opacity:1;fill-rule:nonzero;stroke:#f1f1f1;stroke-width:3.66666;stroke-dasharray:none;stroke-opacity:1"
         x="6.4382443"
         dx="0 0 0 132.448 0 0 118.22623 0 0 152.89903"
         y="85.291489">(a)(b)(c)(d)</tspan></text>
    <path
       id="path1"
       d="m 2410.01,7290.82 h 260 v 500 h -260 z"
       style="fill:#eaeaea;fill-opacity:1;stroke:#231f20;stroke-width:20;stroke-linecap:butt;stroke-linejoin:miter;stroke-miterlimit:4;stroke-dasharray:none;stroke-opacity:1"
       transform="matrix(0.13333333,0,0,-0.13333333,0,1056)" />
    <path
       id="path2"
       d="m 2473.44,7654.99 c 0,-18.22 25.33,-32.99 56.57,-32.99 31.24,0 56.57,14.77 56.57,32.99 0,18.23 -25.33,33 -56.57,33 -31.24,0 -56.57,-14.77 -56.57,-33 z"
       style="fill:none;stroke:#231f20;stroke-width:20;stroke-linecap:butt;stroke-linejoin:miter;stroke-miterlimit:4;stroke-dasharray:none;stroke-opacity:1"
       transform="matrix(0.13333333,0,0,-0.13333333,0,1056)" />
    <path
       id="path3"
       d="m 2473.44,7431.66 c 0,-18.23 25.33,-33 56.57,-33 31.24,0 56.57,14.77 56.57,33 0,18.22 -25.33,33 -56.57,33 -31.24,0 -56.57,-14.78 -56.57,-33 z"
       style="fill:none;stroke:#231f20;stroke-width:20;stroke-linecap:butt;stroke-linejoin:miter;stroke-miterlimit:4;stroke-dasharray:none;stroke-opacity:1"
       transform="matrix(0.13333333,0,0,-0.13333333,0,1056)" />
    <path
       id="path4"
       d="m 2450.01,7471.66 h 146.67 v 146.66 h -146.67 v -146.66"
       style="fill:#231f20;fill-opacity:1;fill-rule:nonzero;stroke:none"
       transform="matrix(0.13333333,0,0,-0.13333333,0,1056)" />
    <path
       id="path5"
       d="m 3068.57,7554.16 h 100.67"
       style="fill:none;stroke:#231f20;stroke-width:20;stroke-linecap:butt;stroke-linejoin:miter;stroke-miterlimit:4;stroke-dasharray:none;stroke-opacity:1"
       transform="matrix(0.13333333,0,0,-0.13333333,0,1056)" />
    <path
       id="path6"
       d="m 2817.23,7546.66 c 0,-67.69 54.88,-122.57 122.57,-122.57 67.69,0 122.57,54.88 122.57,122.57 0,67.69 -54.88,122.57 -122.57,122.57 -67.69,0 -122.57,-54.88 -122.57,-122.57 z"
       style="fill:#eaeaea;fill-opacity:1;stroke:#231f20;stroke-width:20;stroke-linecap:butt;stroke-linejoin:miter;stroke-miterlimit:4;stroke-dasharray:none;stroke-opacity:1"
       transform="matrix(0.13333333,0,0,-0.13333333,0,1056)" />
    <path
       id="path7"
       d="m 2817.23,7546.66 h -144.1"
       style="fill:none;stroke:#231f20;stroke-width:20;stroke-linecap:butt;stroke-linejoin:miter;stroke-miterlimit:4;stroke-dasharray:none;stroke-opacity:1"
       transform="matrix(0.13333333,0,0,-0.13333333,0,1056)" />
    <path
       id="path8"
       d="m 2891.87,7596.4 98.99,-98.99"
       style="fill:none;stroke:#231f20;stroke-width:10;stroke-linecap:butt;stroke-linejoin:miter;stroke-miterlimit:4;stroke-dasharray:none;stroke-opacity:1"
       transform="matrix(0.13333333,0,0,-0.13333333,0,1056)" />
    <path
       id="path9"
       d="m 3714.44,7276.4 h 260 v 500 h -260 z"
       style="fill:#eaeaea;fill-opacity:1;stroke:#231f20;stroke-width:20;stroke-linecap:butt;stroke-linejoin:miter;stroke-miterlimit:4;stroke-dasharray:none;stroke-opacity:1"
       transform="matrix(0.13333333,0,0,-0.13333333,0,1056)" />
    <path
       id="path10"
       d="m 3777.87,7640.57 c 0,-18.23 25.33,-33 56.57,-33 31.24,0 56.57,14.77 56.57,33 0,18.22 -25.33,33 -56.57,33 -31.24,0 -56.57,-14.78 -56.57,-33 z"
       style="fill:none;stroke:#231f20;stroke-width:20;stroke-linecap:butt;stroke-linejoin:miter;stroke-miterlimit:4;stroke-dasharray:none;stroke-opacity:1"
       transform="matrix(0.13333333,0,0,-0.13333333,0,1056)" />
    <path
       id="path11"
       d="m 3778.08,7422.04 c 0,-18.23 25.33,-33 56.57,-33 31.24,0 56.57,14.77 56.57,33 0,18.22 -25.33,33 -56.57,33 -31.24,0 -56.57,-14.78 -56.57,-33 z"
       style="fill:none;stroke:#231f20;stroke-width:20;stroke-linecap:butt;stroke-linejoin:miter;stroke-miterlimit:4;stroke-dasharray:none;stroke-opacity:1"
       transform="matrix(0.13333333,0,0,-0.13333333,0,1056)" />
    <path
       id="path12"
       d="m 3754.44,7457.23 h 146.67 v 146.67 h -146.67 v -146.67"
       style="fill:#231f20;fill-opacity:1;fill-rule:nonzero;stroke:none"
       transform="matrix(0.13333333,0,0,-0.13333333,0,1056)" />
    <path
       id="path13"
       d="m 4121.36,7545.58 c 0,-67.69 54.87,-122.56 122.56,-122.56 67.69,0 122.56,54.87 122.56,122.56 0,67.69 -54.87,122.56 -122.56,122.56 -67.69,0 -122.56,-54.87 -122.56,-122.56 z"
       style="fill:#eaeaea;fill-opacity:1;stroke:#231f20;stroke-width:20;stroke-linecap:butt;stroke-linejoin:miter;stroke-miterlimit:4;stroke-dasharray:none;stroke-opacity:1"
       transform="matrix(0.13333333,0,0,-0.13333333,0,1056)" />
    <path
       id="path14"
       d="m 4281,7611.83 v -140"
       style="fill:none;stroke:#231f20;stroke-width:20;stroke-linecap:butt;stroke-linejoin:miter;stroke-miterlimit:4;stroke-dasharray:none;stroke-opacity:1"
       transform="matrix(0.13333333,0,0,-0.13333333,0,1056)" />
    <path
       id="path15"
       d="m 4476.73,7547.04 h -195"
       style="fill:none;stroke:#231f20;stroke-width:20;stroke-linecap:butt;stroke-linejoin:miter;stroke-miterlimit:4;stroke-dasharray:none;stroke-opacity:1"
       transform="matrix(0.13333333,0,0,-0.13333333,0,1056)" />
    <path
       id="path16"
       d="m 4214.38,7547.34 -237.13,-1.76"
       style="fill:none;stroke:#231f20;stroke-width:20;stroke-linecap:butt;stroke-linejoin:miter;stroke-miterlimit:4;stroke-dasharray:none;stroke-opacity:1"
       transform="matrix(0.13333333,0,0,-0.13333333,0,1056)" />
    <path
       id="path17"
       d="m 4221.04,7613.59 v -140"
       style="fill:none;stroke:#231f20;stroke-width:20;stroke-linecap:butt;stroke-linejoin:miter;stroke-miterlimit:4;stroke-dasharray:none;stroke-opacity:1"
       transform="matrix(0.13333333,0,0,-0.13333333,0,1056)" />
    <path
       id="path18"
       d="m 773.887,7356.95 h 196.668 v 373.33 H 773.887 v -373.33"
       style="fill:#cccbcc;fill-opacity:1;fill-rule:nonzero;stroke:none"
       transform="matrix(0.13333333,0,0,-0.13333333,0,1056)" />
    <path
       id="path19"
       d="m 773.887,7356.95 h 196.668 v 373.33 H 773.887 Z"
       style="fill:#eaeaea;fill-opacity:1;stroke:#231f20;stroke-width:20;stroke-linecap:butt;stroke-linejoin:miter;stroke-miterlimit:4;stroke-dasharray:none;stroke-opacity:1"
       transform="matrix(0.13333333,0,0,-0.13333333,0,1056)" />
    <path
       id="path20"
       d="m 1906.47,7386.52 c 5.48,-0.57 11.05,-0.86 16.69,-0.86 88.74,0 160.68,71.94 160.68,160.68 0,88.74 -71.94,160.68 -160.68,160.68 -7.15,0 -14.19,-0.46 -21.09,-1.37"
       style="fill:#eaeaea;fill-opacity:1;stroke:#231f20;stroke-width:20;stroke-linecap:butt;stroke-linejoin:miter;stroke-miterlimit:4;stroke-dasharray:none;stroke-opacity:1"
       transform="matrix(0.13333333,0,0,-0.13333333,0,1056)" />
    <path
       id="path21"
       d="m 1911.32,7723.87 h -26.03 v -355.06 h 26.03 v 355.06"
       style="fill:#231f20;fill-opacity:1;fill-rule:nonzero;stroke:none"
       transform="matrix(0.13333333,0,0,-0.13333333,0,1056)" />
    <path
       id="path22"
       d="M 1894.74,7546.34 H 1664.07"
       style="fill:none;stroke:#231f20;stroke-width:20;stroke-linecap:butt;stroke-linejoin:miter;stroke-miterlimit:4;stroke-dasharray:none;stroke-opacity:1"
       transform="matrix(0.13333333,0,0,-0.13333333,0,1056)" />
    <path
       id="path23"
       d="m 846.188,7544.76 c 0,-14.19 11.5,-25.69 25.683,-25.69 14.184,0 25.684,11.5 25.684,25.69 0,14.18 -11.5,25.68 -25.684,25.68 -14.183,0 -25.683,-11.5 -25.683,-25.68 z"
       style="fill:none;stroke:#231f20;stroke-width:20;stroke-linecap:butt;stroke-linejoin:miter;stroke-miterlimit:4;stroke-dasharray:none;stroke-opacity:1"
       transform="matrix(0.13333333,0,0,-0.13333333,0,1056)" />
    <path
       id="path24"
       d="M 912.141,7542.39 H 927.93"
       style="fill:none;stroke:#231f20;stroke-width:20;stroke-linecap:butt;stroke-linejoin:miter;stroke-miterlimit:4;stroke-dasharray:none;stroke-opacity:1"
       transform="matrix(0.13333333,0,0,-0.13333333,0,1056)" />
    <path
       id="path25"
       d="M 837.918,7543.96 H 825.285"
       style="fill:none;stroke:#231f20;stroke-width:20;stroke-linecap:butt;stroke-linejoin:miter;stroke-miterlimit:4;stroke-dasharray:none;stroke-opacity:1"
       transform="matrix(0.13333333,0,0,-0.13333333,0,1056)" />
    <path
       id="path26"
       d="m 874.238,7509.23 v -9.48"
       style="fill:none;stroke:#231f20;stroke-width:20;stroke-linecap:butt;stroke-linejoin:miter;stroke-miterlimit:4;stroke-dasharray:none;stroke-opacity:1"
       transform="matrix(0.13333333,0,0,-0.13333333,0,1056)" />
    <path
       id="path27"
       d="m 874.238,7578.71 v 12.63"
       style="fill:none;stroke:#231f20;stroke-width:20;stroke-linecap:butt;stroke-linejoin:miter;stroke-miterlimit:4;stroke-dasharray:none;stroke-opacity:1"
       transform="matrix(0.13333333,0,0,-0.13333333,0,1056)" />
    <path
       id="path28"
       d="m 899.508,7567.65 11.051,9.48"
       style="fill:none;stroke:#231f20;stroke-width:20;stroke-linecap:butt;stroke-linejoin:miter;stroke-miterlimit:4;stroke-dasharray:none;stroke-opacity:1"
       transform="matrix(0.13333333,0,0,-0.13333333,0,1056)" />
    <path
       id="path29"
       d="m 897.926,7520.28 11.054,-11.05"
       style="fill:none;stroke:#231f20;stroke-width:20;stroke-linecap:butt;stroke-linejoin:miter;stroke-miterlimit:4;stroke-dasharray:none;stroke-opacity:1"
       transform="matrix(0.13333333,0,0,-0.13333333,0,1056)" />
    <path
       id="path30"
       d="m 850.555,7520.28 -10.266,-10.26"
       style="fill:none;stroke:#231f20;stroke-width:20;stroke-linecap:butt;stroke-linejoin:miter;stroke-miterlimit:4;stroke-dasharray:none;stroke-opacity:1"
       transform="matrix(0.13333333,0,0,-0.13333333,0,1056)" />
    <path
       id="path31"
       d="m 846.895,7570.2 -10.266,10.26"
       style="fill:none;stroke:#231f20;stroke-width:20;stroke-linecap:butt;stroke-linejoin:miter;stroke-miterlimit:4;stroke-dasharray:none;stroke-opacity:1"
       transform="matrix(0.13333333,0,0,-0.13333333,0,1056)" />
    <path
       id="path32"
       d="M 775.68,7546.53 H 545.008"
       style="fill:none;stroke:#231f20;stroke-width:20;stroke-linecap:butt;stroke-linejoin:miter;stroke-miterlimit:4;stroke-dasharray:none;stroke-opacity:1"
       transform="matrix(0.13333333,0,0,-0.13333333,0,1056)" />
    <path
       id="path33"
       d="m 277.777,7289.51 h 260.004 v 500 H 277.777 Z"
       style="fill:#eaeaea;fill-opacity:1;stroke:#231f20;stroke-width:20;stroke-linecap:butt;stroke-linejoin:miter;stroke-miterlimit:4;stroke-dasharray:none;stroke-opacity:1"
       transform="matrix(0.13333333,0,0,-0.13333333,0,1056)" />
    <path
       id="path34"
       d="m 341.211,7653.68 c 0,-18.23 25.328,-33 56.57,-33 31.242,0 56.571,14.77 56.571,33 0,18.22 -25.329,33 -56.571,33 -31.242,0 -56.57,-14.78 -56.57,-33 z"
       style="fill:none;stroke:#231f20;stroke-width:20;stroke-linecap:butt;stroke-linejoin:miter;stroke-miterlimit:4;stroke-dasharray:none;stroke-opacity:1"
       transform="matrix(0.13333333,0,0,-0.13333333,0,1056)" />
    <path
       id="path35"
       d="m 341.211,7430.34 c 0,-18.22 25.328,-33 56.57,-33 31.242,0 56.571,14.78 56.571,33 0,18.23 -25.329,33 -56.571,33 -31.242,0 -56.57,-14.77 -56.57,-33 z"
       style="fill:none;stroke:#231f20;stroke-width:20;stroke-linecap:butt;stroke-linejoin:miter;stroke-miterlimit:4;stroke-dasharray:none;stroke-opacity:1"
       transform="matrix(0.13333333,0,0,-0.13333333,0,1056)" />
    <path
       id="path36"
       d="m 317.781,7470.34 h 146.668 v 146.67 H 317.781 v -146.67"
       style="fill:#231f20;fill-opacity:1;fill-rule:nonzero;stroke:none"
       transform="matrix(0.13333333,0,0,-0.13333333,0,1056)" />
    <path
       id="path37"
       d="m 1954.49,7553.63 c 0,-14.19 11.5,-25.68 25.69,-25.68 14.18,0 25.68,11.49 25.68,25.68 0,14.18 -11.5,25.68 -25.68,25.68 -14.19,0 -25.69,-11.5 -25.69,-25.68 z"
       style="fill:none;stroke:#231f20;stroke-width:20;stroke-linecap:butt;stroke-linejoin:miter;stroke-miterlimit:4;stroke-dasharray:none;stroke-opacity:1"
       transform="matrix(0.13333333,0,0,-0.13333333,0,1056)" />
    <path
       id="path38"
       d="m 2020.44,7551.26 h 15.79"
       style="fill:none;stroke:#231f20;stroke-width:20;stroke-linecap:butt;stroke-linejoin:miter;stroke-miterlimit:4;stroke-dasharray:none;stroke-opacity:1"
       transform="matrix(0.13333333,0,0,-0.13333333,0,1056)" />
    <path
       id="path39"
       d="m 1946.22,7552.84 h -12.63"
       style="fill:none;stroke:#231f20;stroke-width:20;stroke-linecap:butt;stroke-linejoin:miter;stroke-miterlimit:4;stroke-dasharray:none;stroke-opacity:1"
       transform="matrix(0.13333333,0,0,-0.13333333,0,1056)" />
    <path
       id="path40"
       d="m 1982.54,7518.1 v -9.48"
       style="fill:none;stroke:#231f20;stroke-width:20;stroke-linecap:butt;stroke-linejoin:miter;stroke-miterlimit:4;stroke-dasharray:none;stroke-opacity:1"
       transform="matrix(0.13333333,0,0,-0.13333333,0,1056)" />
    <path
       id="path41"
       d="m 1982.54,7587.58 v 12.63"
       style="fill:none;stroke:#231f20;stroke-width:20;stroke-linecap:butt;stroke-linejoin:miter;stroke-miterlimit:4;stroke-dasharray:none;stroke-opacity:1"
       transform="matrix(0.13333333,0,0,-0.13333333,0,1056)" />
    <path
       id="path42"
       d="m 2007.81,7576.52 11.05,9.48"
       style="fill:none;stroke:#231f20;stroke-width:20;stroke-linecap:butt;stroke-linejoin:miter;stroke-miterlimit:4;stroke-dasharray:none;stroke-opacity:1"
       transform="matrix(0.13333333,0,0,-0.13333333,0,1056)" />
    <path
       id="path43"
       d="m 2006.23,7529.15 11.06,-11.05"
       style="fill:none;stroke:#231f20;stroke-width:20;stroke-linecap:butt;stroke-linejoin:miter;stroke-miterlimit:4;stroke-dasharray:none;stroke-opacity:1"
       transform="matrix(0.13333333,0,0,-0.13333333,0,1056)" />
    <path
       id="path44"
       d="m 1958.86,7529.15 -10.27,-10.26"
       style="fill:none;stroke:#231f20;stroke-width:20;stroke-linecap:butt;stroke-linejoin:miter;stroke-miterlimit:4;stroke-dasharray:none;stroke-opacity:1"
       transform="matrix(0.13333333,0,0,-0.13333333,0,1056)" />
    <path
       id="path45"
       d="m 1955.2,7579.07 -10.27,10.26"
       style="fill:none;stroke:#231f20;stroke-width:20;stroke-linecap:butt;stroke-linejoin:miter;stroke-miterlimit:4;stroke-dasharray:none;stroke-opacity:1"
       transform="matrix(0.13333333,0,0,-0.13333333,0,1056)" />
    <path
       id="path46"
       d="m 1404.49,7297.79 h 260 v 500.01 h -260 z"
       style="fill:#eaeaea;fill-opacity:1;stroke:#231f20;stroke-width:20;stroke-linecap:butt;stroke-linejoin:miter;stroke-miterlimit:4;stroke-dasharray:none;stroke-opacity:1"
       transform="matrix(0.13333333,0,0,-0.13333333,0,1056)" />
    <path
       id="path47"
       d="m 1467.93,7661.96 c 0,-18.22 25.32,-33 56.56,-33 31.24,0 56.57,14.78 56.57,33 0,18.23 -25.33,33 -56.57,33 -31.24,0 -56.56,-14.77 -56.56,-33 z"
       style="fill:none;stroke:#231f20;stroke-width:20;stroke-linecap:butt;stroke-linejoin:miter;stroke-miterlimit:4;stroke-dasharray:none;stroke-opacity:1"
       transform="matrix(0.13333333,0,0,-0.13333333,0,1056)" />
    <path
       id="path48"
       d="m 1467.93,7438.63 c 0,-18.22 25.32,-33 56.56,-33 31.24,0 56.57,14.78 56.57,33 0,18.22 -25.33,33 -56.57,33 -31.24,0 -56.56,-14.78 -56.56,-33 z"
       style="fill:none;stroke:#231f20;stroke-width:20;stroke-linecap:butt;stroke-linejoin:miter;stroke-miterlimit:4;stroke-dasharray:none;stroke-opacity:1"
       transform="matrix(0.13333333,0,0,-0.13333333,0,1056)" />
    <path
       id="path49"
       d="m 1444.49,7478.63 h 146.67 v 146.67 h -146.67 v -146.67"
       style="fill:#231f20;fill-opacity:1;fill-rule:nonzero;stroke:none"
       transform="matrix(0.13333333,0,0,-0.13333333,0,1056)" />
    <path
       id="path50"
       d="m 3187.62,7399.03 c 5.49,-0.57 11.06,-0.86 16.69,-0.86 88.74,0 160.68,71.94 160.68,160.68 0,88.74 -71.94,160.68 -160.68,160.68 -7.14,0 -14.18,-0.46 -21.08,-1.37"
       style="fill:#eaeaea;fill-opacity:1;stroke:#231f20;stroke-width:20;stroke-linecap:butt;stroke-linejoin:miter;stroke-miterlimit:4;stroke-dasharray:none;stroke-opacity:1"
       transform="matrix(0.13333333,0,0,-0.13333333,0,1056)" />
    <path
       id="path51"
       d="m 3192.48,7736.38 h -26.04 v -355.06 h 26.04 v 355.06"
       style="fill:#231f20;fill-opacity:1;fill-rule:nonzero;stroke:none"
       transform="matrix(0.13333333,0,0,-0.13333333,0,1056)" />
    <path
       id="path52"
       d="m 3235.64,7566.14 c 0,-14.19 11.5,-25.69 25.69,-25.69 14.18,0 25.68,11.5 25.68,25.69 0,14.18 -11.5,25.68 -25.68,25.68 -14.19,0 -25.69,-11.5 -25.69,-25.68 z"
       style="fill:none;stroke:#231f20;stroke-width:20;stroke-linecap:butt;stroke-linejoin:miter;stroke-miterlimit:4;stroke-dasharray:none;stroke-opacity:1"
       transform="matrix(0.13333333,0,0,-0.13333333,0,1056)" />
    <path
       id="path53"
       d="m 3301.6,7563.77 h 15.79"
       style="fill:none;stroke:#231f20;stroke-width:20;stroke-linecap:butt;stroke-linejoin:miter;stroke-miterlimit:4;stroke-dasharray:none;stroke-opacity:1"
       transform="matrix(0.13333333,0,0,-0.13333333,0,1056)" />
    <path
       id="path54"
       d="m 3227.38,7565.35 h -12.64"
       style="fill:none;stroke:#231f20;stroke-width:20;stroke-linecap:butt;stroke-linejoin:miter;stroke-miterlimit:4;stroke-dasharray:none;stroke-opacity:1"
       transform="matrix(0.13333333,0,0,-0.13333333,0,1056)" />
    <path
       id="path55"
       d="m 3263.7,7530.61 v -9.48"
       style="fill:none;stroke:#231f20;stroke-width:20;stroke-linecap:butt;stroke-linejoin:miter;stroke-miterlimit:4;stroke-dasharray:none;stroke-opacity:1"
       transform="matrix(0.13333333,0,0,-0.13333333,0,1056)" />
    <path
       id="path56"
       d="m 3263.7,7600.09 v 12.63"
       style="fill:none;stroke:#231f20;stroke-width:20;stroke-linecap:butt;stroke-linejoin:miter;stroke-miterlimit:4;stroke-dasharray:none;stroke-opacity:1"
       transform="matrix(0.13333333,0,0,-0.13333333,0,1056)" />
    <path
       id="path57"
       d="m 3288.96,7589.04 11.06,9.47"
       style="fill:none;stroke:#231f20;stroke-width:20;stroke-linecap:butt;stroke-linejoin:miter;stroke-miterlimit:4;stroke-dasharray:none;stroke-opacity:1"
       transform="matrix(0.13333333,0,0,-0.13333333,0,1056)" />
    <path
       id="path58"
       d="m 3287.39,7541.66 11.05,-11.05"
       style="fill:none;stroke:#231f20;stroke-width:20;stroke-linecap:butt;stroke-linejoin:miter;stroke-miterlimit:4;stroke-dasharray:none;stroke-opacity:1"
       transform="matrix(0.13333333,0,0,-0.13333333,0,1056)" />
    <path
       id="path59"
       d="m 3240.01,7541.66 -10.26,-10.27"
       style="fill:none;stroke:#231f20;stroke-width:20;stroke-linecap:butt;stroke-linejoin:miter;stroke-miterlimit:4;stroke-dasharray:none;stroke-opacity:1"
       transform="matrix(0.13333333,0,0,-0.13333333,0,1056)" />
    <path
       id="path60"
       d="m 3236.35,7591.58 -10.26,10.26"
       style="fill:none;stroke:#231f20;stroke-width:20;stroke-linecap:butt;stroke-linejoin:miter;stroke-miterlimit:4;stroke-dasharray:none;stroke-opacity:1"
       transform="matrix(0.13333333,0,0,-0.13333333,0,1056)" />
    <path
       id="path61"
       d="m 4486.13,7379.49 c 5.48,-0.57 11.05,-0.86 16.69,-0.86 88.74,0 160.68,71.94 160.68,160.68 0,88.74 -71.94,160.69 -160.68,160.69 -7.15,0 -14.19,-0.47 -21.09,-1.37"
       style="fill:#eaeaea;fill-opacity:1;stroke:#231f20;stroke-width:20;stroke-linecap:butt;stroke-linejoin:miter;stroke-miterlimit:4;stroke-dasharray:none;stroke-opacity:1"
       transform="matrix(0.13333333,0,0,-0.13333333,0,1056)" />
    <path
       id="path62"
       d="m 4490.98,7716.84 h -26.03 v -355.05 h 26.03 v 355.05"
       style="fill:#231f20;fill-opacity:1;fill-rule:nonzero;stroke:none"
       transform="matrix(0.13333333,0,0,-0.13333333,0,1056)" />
    <path
       id="path63"
       d="m 4534.15,7546.6 c 0,-14.19 11.5,-25.69 25.69,-25.69 14.18,0 25.68,11.5 25.68,25.69 0,14.18 -11.5,25.68 -25.68,25.68 -14.19,0 -25.69,-11.5 -25.69,-25.68 z"
       style="fill:none;stroke:#231f20;stroke-width:20;stroke-linecap:butt;stroke-linejoin:miter;stroke-miterlimit:4;stroke-dasharray:none;stroke-opacity:1"
       transform="matrix(0.13333333,0,0,-0.13333333,0,1056)" />
    <path
       id="path64"
       d="m 4600.1,7544.23 h 15.79"
       style="fill:none;stroke:#231f20;stroke-width:20;stroke-linecap:butt;stroke-linejoin:miter;stroke-miterlimit:4;stroke-dasharray:none;stroke-opacity:1"
       transform="matrix(0.13333333,0,0,-0.13333333,0,1056)" />
    <path
       id="path65"
       d="m 4525.88,7545.81 h -12.63"
       style="fill:none;stroke:#231f20;stroke-width:20;stroke-linecap:butt;stroke-linejoin:miter;stroke-miterlimit:4;stroke-dasharray:none;stroke-opacity:1"
       transform="matrix(0.13333333,0,0,-0.13333333,0,1056)" />
    <path
       id="path66"
       d="m 4562.2,7511.07 v -9.48"
       style="fill:none;stroke:#231f20;stroke-width:20;stroke-linecap:butt;stroke-linejoin:miter;stroke-miterlimit:4;stroke-dasharray:none;stroke-opacity:1"
       transform="matrix(0.13333333,0,0,-0.13333333,0,1056)" />
    <path
       id="path67"
       d="m 4562.2,7580.55 v 12.63"
       style="fill:none;stroke:#231f20;stroke-width:20;stroke-linecap:butt;stroke-linejoin:miter;stroke-miterlimit:4;stroke-dasharray:none;stroke-opacity:1"
       transform="matrix(0.13333333,0,0,-0.13333333,0,1056)" />
    <path
       id="path68"
       d="m 4587.47,7569.5 11.05,9.47"
       style="fill:none;stroke:#231f20;stroke-width:20;stroke-linecap:butt;stroke-linejoin:miter;stroke-miterlimit:4;stroke-dasharray:none;stroke-opacity:1"
       transform="matrix(0.13333333,0,0,-0.13333333,0,1056)" />
    <path
       id="path69"
       d="m 4585.89,7522.12 11.06,-11.05"
       style="fill:none;stroke:#231f20;stroke-width:20;stroke-linecap:butt;stroke-linejoin:miter;stroke-miterlimit:4;stroke-dasharray:none;stroke-opacity:1"
       transform="matrix(0.13333333,0,0,-0.13333333,0,1056)" />
    <path
       id="path70"
       d="m 4538.52,7522.12 -10.27,-10.26"
       style="fill:none;stroke:#231f20;stroke-width:20;stroke-linecap:butt;stroke-linejoin:miter;stroke-miterlimit:4;stroke-dasharray:none;stroke-opacity:1"
       transform="matrix(0.13333333,0,0,-0.13333333,0,1056)" />
    <path
       id="path71"
       d="m 4534.86,7572.04 -10.27,10.26"
       style="fill:none;stroke:#231f20;stroke-width:20;stroke-linecap:butt;stroke-linejoin:miter;stroke-miterlimit:4;stroke-dasharray:none;stroke-opacity:1"
       transform="matrix(0.13333333,0,0,-0.13333333,0,1056)" />
    <text
       id="text71"
       xml:space="preserve"
       transform="matrix(1.3333333,0,0,1.3333333,7.1109333,85.333333)"><tspan
         id="tspan71"
         style="font-variant:normal;font-weight:normal;font-size:12px;font-family:Helvetica;writing-mode:lr-tb;fill:#231f20;fill-opacity:1;fill-rule:nonzero;stroke:none"
         x="0"
         dx="0 0 0 99.335999 0 0 88.669678 0 0 114.67428"
         y="0">(a)(b)(c)(d)</tspan></text>
  </g>
</svg>
